<?xml version="1.0" encoding="utf-8"?>
<svg version="1.1" xmlns:xlink="http://www.w3.org/1999/xlink" width="24px" height="26px" xmlns="http://www.w3.org/2000/svg">
  <g transform="matrix(1 0 0 1 -330 -75 )">
    <path d="M 23.3967391304348 11.4980744544288  C 23.7989130434783 11.8874625588361  24 12.3881044073599  24 13  C 24 13.6007702182285  23.7989130434783 14.1069747539581  23.3967391304348 14.5186136071887  L 12.7826086956522 25.382541720154  C 12.3586956521739 25.7941805733847  11.8641304347826 26  11.2989130434783 26  C 10.7445652173913 26  10.2554347826087 25.7941805733847  9.83152173913043 25.382541720154  L 8.60869565217391 24.1309370988447  C 8.19565217391304 23.7081728712024  7.98913043478261 23.2019683354728  7.98913043478261 22.612323491656  C 7.98913043478261 22.0226786478391  8.19565217391304 21.5164741121095  8.60869565217391 21.0937098844673  L 13.3858695652174 16  L 1.90760869565217 16  C 1.34239130434783 16.204107830552  0.883152173913044 15.9955070603338  0.529891304347826 15.5783055198973  C 0.176630434782609 15.1611039794608  0 14.6576807873342  0 14.0680359435173  L 0 11.9319640564827  C 0 11.3423192126658  0.176630434782609 10.8388960205392  0.529891304347826 10.4216944801027  C 0.883152173913044 10.0044929396662  1.34239130434783 9.79589216944801  1.90760869565217 10  L 13.3858695652174 10  L 8.60869565217391 4.88960205391528  C 8.19565217391304 4.48908857509628  7.98913043478261 3.98844672657253  7.98913043478261 3.38767650834403  C 7.98913043478261 2.78690629011553  8.19565217391304 2.28626444159178  8.60869565217391 1.88575096277278  L 9.83152173913043 0.634146341463415  C 10.2445652173913 0.211382113821136  10.7336956521739 0  11.2989130434783 0  C 11.875 0  12.3695652173913 0.211382113821136  12.7826086956522 0.634146341463415  L 23.3967391304348 11.4980744544288  Z " fill-rule="nonzero" fill="#ffffff" stroke="none" transform="matrix(1 0 0 1 330 75 )" />
  </g>
</svg>