<?xml version="1.0" encoding="utf-8"?>
<svg version="1.1" xmlns:xlink="http://www.w3.org/1999/xlink" width="30px" height="30px" xmlns="http://www.w3.org/2000/svg">
  <g transform="matrix(1 0 0 1 -7 -12 )">
    <path d="M 12.2066326530612 27.43359375  C 12.1938775510204 27.51953125  12.2066326530612 27.625  12.2448979591837 27.75  C 12.2448979591837 27.8125  12.2512755102041 27.96875  12.2640306122449 28.21875  C 12.2767857142857 28.46875  12.2799744897959 28.67578125  12.2735969387755 28.83984375  C 12.2672193877551 29.00390625  12.2480867346939 29.1875  12.2161989795918 29.390625  C 12.1843112244898 29.59375  12.1205357142857 29.74609375  12.0248724489796 29.84765625  C 11.9292091836735 29.94921875  11.7984693877551 30  11.6326530612245 30  L 5.51020408163265 30  C 3.99234693877551 30  2.69451530612245 29.33984375  1.61670918367347 28.01953125  C 0.53890306122449 26.69921875  0 25.109375  0 23.25  L 0 6.75  C 0 4.89062499999999  0.53890306122449 3.30078125  1.61670918367347 1.98046875  C 2.69451530612245 0.660156249999996  3.99234693877551 0  5.51020408163265 0  L 11.6326530612245 0  C 11.7984693877551 0  11.9419642857143 0.0742187499999958  12.063137755102 0.222656250000001  C 12.1843112244898 0.371093749999999  12.2448979591837 0.546874999999999  12.2448979591837 0.750000000000001  C 12.2448979591837 0.812499999999997  12.2512755102041 0.968749999999998  12.2640306122449 1.21875  C 12.2767857142857 1.46875  12.2799744897959 1.67578125  12.2735969387755 1.83984375  C 12.2672193877551 2.00390625  12.2480867346939 2.1875  12.2161989795918 2.390625  C 12.1843112244898 2.59375  12.1205357142857 2.74609375  12.0248724489796 2.84765625  C 11.9292091836735 2.94921875  11.7984693877551 3  11.6326530612245 3  L 5.51020408163265 3  C 4.66836734693878 3  3.94770408163265 3.3671875  3.34821428571429 4.1015625  C 2.74872448979592 4.8359375  2.44897959183673 5.71875  3 6.75  L 3 23.25  C 2.44897959183673 24.28125  2.74872448979592 25.1640625  3.34821428571429 25.8984375  C 3.94770408163265 26.6328125  4.66836734693878 27  5.51020408163265 27  L 11.0204081632653 27  L 11.2308673469388 27  L 11.4795918367347 27  C 11.4795918367347 27  11.5529336734694 27.0078125  11.6996173469388 27.0234375  C 11.8463010204082 27.0390625  11.9196428571429 27.0625  11.9196428571429 27.09375  C 11.9196428571429 27.125  11.9706632653061 27.16796875  12.0727040816327 27.22265625  C 12.1747448979592 27.27734375  12.219387755102 27.34765625  12.2066326530612 27.43359375  Z M 29.6364795918367 13.9453125  C 29.8788265306122 14.2421875  30 14.59375  30 15  C 30 15.40625  29.8788265306122 15.7578125  29.6364795918367 16.0546875  L 19.2283163265306 28.8046875  C 18.9859693877551 29.1015625  18.6989795918367 29.25  18.3673469387755 29.25  C 18.0357142857143 29.25  17.7487244897959 29.1015625  17.5063775510204 28.8046875  C 17.2640306122449 28.5078125  17.1428571428571 28.15625  17.1428571428571 27.75  L 17.1428571428571 21  L 8.57142857142857 21  C 8.23979591836735 21  7.95280612244898 20.8515625  7.71045918367347 20.5546875  C 7.46811224489796 20.2578125  7.3469387755102 19.90625  7.3469387755102 19.5  L 7.3469387755102 10.5  C 7.3469387755102 10.09375  7.46811224489796 9.7421875  7.71045918367347 9.4453125  C 7.95280612244898 9.1484375  8.23979591836735 9  8.57142857142857 9  L 17.1428571428571 9  L 17.1428571428571 2.25  C 17.1428571428571 1.84375  17.2640306122449 1.4921875  17.5063775510204 1.1953125  C 17.7487244897959 0.898437499999999  18.0357142857143 0.750000000000001  18.3673469387755 0.750000000000001  C 18.6989795918367 0.750000000000001  18.9859693877551 0.898437499999999  19.2283163265306 1.1953125  L 29.6364795918367 13.9453125  Z " fill-rule="nonzero" fill="#ffffff" stroke="none" transform="matrix(1 0 0 1 7 12 )" />
  </g>
</svg>